<?xml version="1.0" encoding="UTF-8"?>
<svg id="Layer_2" data-name="Layer 2" xmlns="http://www.w3.org/2000/svg" viewBox="0 0 416.56 345.61">
  <defs>
    <style>
      .cls-1 {
        fill: #231f20;
      }
    </style>
  </defs>
  <g id="Layer_1-2" data-name="Layer 1">
    <g>
      <path class="cls-1" d="M404.49,18.95c-1.89-10.66-15.28-3.16-18.97-9.63-5.66-9.93,11.12-10.17,17.26-8.6,6.51,1.66,12.87,9.07,13.77,15.71l-.13,256.36c-2.59,12.03-13.19,17.54-24.94,16.25-.44,5.83.81,12.53-.42,18.22-1.11,5.17-10.18,25.94-12.98,31.24-4.01,7.56-12.48,10.16-18.18,2.51-1.69-2.27-15.23-33.15-15.23-35.06v-16.91h-74.57v19.94h43.79c.58,0,5.55,2.47,6.45,3.09,11.86,8.14,10.35,26.85-3.16,32.27-71.06,2.39-142.65.46-213.9.98-14.37-2.4-19.86-20.95-9.52-31.05,1.36-1.33,7.99-5.29,9.45-5.29h43.79v-19.94H16.49C9.61,289.04,0,278.5.41,271.3l.02-202.94c-.13-5.09,5.88-7.17,9.82-4.8.2.12,2.33,2.89,2.33,3.08v177.31h275.29c1.63,0,4.64,3.8,4.76,5.7s-2.74,6.44-3.89,6.44H12.59v15.17c0,.6,3.51,4.77,3.9,4.77h328.18v-19.94h-34.25c-.25,0-3.26-3.05-3.46-3.49-1.43-3.08,1.58-8.65,4.33-8.65h33.38V59.7c0-2,2.92-8.63,4.16-10.58,8.85-13.84,30.27-13.58,39.05.31.63.99,3.61,7.99,3.61,8.53v185.98h13.01V18.95ZM379.35,95.69v-34.25c0-1.3-1.97-5.29-3.01-6.53-3.48-4.19-10.26-4.66-14.63-1.57-1.17.83-4.03,4.55-4.03,5.5v36.85h21.68ZM379.35,107.83h-21.68v19.94h21.68v-19.94ZM379.35,140.77h-21.68v157.8h21.68v-157.8ZM391.49,276.03c15.04,2.67,13.65-7.94,12.63-19.13l-12.63-.81v19.94ZM257.1,289.04h-97.98v19.94h97.98v-19.94ZM375.88,310.71h-15.61l7.38,18.21c1.8.37,1.2-.73,1.68-1.75,2.51-5.3,4.52-10.97,6.55-16.47ZM105.98,321.3c-6.96,1.56-6.75,11.63.67,11.97l203.82.03c7.94-1.67,7.26-11.26-.89-12.2l-203.59.2Z"/>
      <path class="cls-1" d="M267.67,167.47c4.94.67,10.05-.27,14.99.19,24.68,2.31,24.68,34.17.87,37.26H69.39c-24.01-2.38-23.89-34.51-.78-37.18,4.72-.55,9.88.22,14.65-.09l1.71-.89,57.69-79.31c6.6-6.35,14.99-4.83,20.37,2.15l32.95,45.09c1.28.34,1.41-.84,2.01-1.44,8.35-8.38,13.95-29.51,29.58-20.62l40.1,54.84ZM204.21,167.65l-51.6-71.1-52.44,71.1h104.05ZM220.25,167.65h32.51l-32.5-44.23-15.91,22.27,15.9,21.95ZM66.95,180.83c-4.83,2.64-4.15,10.5,1.52,11.15h215.11c7.12-1.44,7.12-9.91,0-11.36l-216.64.21Z"/>
      <path class="cls-1" d="M14.96.52l350.99-.25c7.69.99,6.44,12.97-1.74,12.22H18.27c-12.23,1.92-.38,30.84-8.68,35.55-3.35,1.9-8.04.78-8.96-3.26S-.1,20.12.53,15.56C1.49,8.59,8.24,2.12,14.96.52Z"/>
      <path class="cls-1" d="M264.74,53.4c30.22-2.14,33.2,44.11,4.06,46.61-31.95,2.74-34.4-44.46-4.06-46.61ZM274.14,69.1c-9.82-10.27-26.27,5.66-15.36,15.79,10.3,9.57,24.9-5.8,15.36-15.79Z"/>
    </g>
  </g>
</svg>