<?xml version="1.0" encoding="UTF-8"?>
<svg id="Layer_2" data-name="Layer 2" xmlns="http://www.w3.org/2000/svg" viewBox="0 0 355.09 355.11">
  <defs>
    <style>
      .cls-1 {
        fill: #231f20;
      }
    </style>
  </defs>
  <g id="Layer_1-2" data-name="Layer 1">
    <g>
      <path class="cls-1" d="M88.48,42.82h35.56c1.45,0,4.87,3.42,4.87,4.87v38.55h25.45V28.23c-10.94-4.9-12.66-21.55-1.25-26.7,17.91-8.1,29.69,18.33,11.73,25.58v59.13h25.45V27.1c-15.84-6.19-9-29.14,7.8-26.88,11.24,1.51,15.6,16.19,7.84,24.18-.79.82-5.16,3.45-5.16,3.82v58.01h25.45v-38.55c0-1.45,3.42-4.87,4.87-4.87h35.56v-14.6c-16.53-7.65-8.95-32.61,9.39-27.36,12.82,3.67,13.09,21.7,1.05,26.73-.73,5.28,1.77,21.28-1.67,24.75-.18.18-2.98,1.7-3.16,1.7h-34.81v32.19h28.07c.24,0,3.37,3.13,3.37,3.37v28.07h32.19v-34.81c0-.18,1.52-2.98,1.7-3.16,3.47-3.44,19.47-.94,24.75-1.67,4.92-12.15,23.08-11.7,26.73,1.05,5.25,18.34-19.7,25.92-27.36,9.39h-14.6v35.56c0,.95-3.91,4.87-4.87,4.87h-38.55v25.45h58.01c4.77-11.04,21.58-12.59,26.7-1.25,7.98,17.66-18.28,29.85-25.58,11.73h-59.13v25.45h59.13c7.3-18.11,33.56-5.93,25.58,11.73-5.16,11.41-21.81,9.69-26.7-1.25h-58.01v25.45h38.55c1.45,0,4.87,3.42,4.87,4.87v35.56h14.6c7.65-16.53,32.61-8.95,27.36,9.39-3.67,12.82-21.7,13.09-26.73,1.05-5.28-.73-21.28,1.77-24.75-1.67-.18-.18-1.7-2.98-1.7-3.16v-34.81h-32.19v28.07c0,.24-3.13,3.37-3.37,3.37h-28.07v32.19h34.81c.18,0,2.98,1.52,3.16,1.7,3.44,3.47.94,19.47,1.67,24.75,12.04,5.03,11.77,23.06-1.05,26.73-18.34,5.25-25.92-19.7-9.39-27.36v-14.6h-35.56c-1.45,0-4.87-3.42-4.87-4.87v-38.55h-25.45v58.01c11.04,4.77,12.59,21.58,1.25,26.7-17.79,8.04-29.77-18.29-11.73-25.58v-59.13h-25.45v59.13c18.11,7.3,5.93,33.56-11.73,25.58-11.33-5.12-9.79-21.93,1.25-26.7v-58.01h-25.45v38.55c0,.95-3.91,4.87-4.87,4.87h-35.56v14.6c16.53,7.65,8.95,32.61-9.39,27.36-12.76-3.65-13.2-21.82-1.05-26.73.73-5.28-1.77-21.28,1.67-24.75.18-.18,2.98-1.7,3.16-1.7h34.81v-32.19h-28.07c-.24,0-3.37-3.13-3.37-3.37v-28.07h-32.19v34.81c0,.18-1.52,2.98-1.7,3.16-3.47,3.44-19.47.94-24.75,1.67-4.94,11.5-21.71,12.05-26.31.02-7.09-18.54,18.96-27.66,26.93-10.47h14.6v-35.56c0-1.45,3.42-4.87,4.87-4.87h38.55v-25.45H28.23c-4.96,10.89-21.52,12.71-26.7,1.25-8.1-17.91,18.33-29.69,25.58-11.73h59.13v-25.45H27.1c-7.3,18.11-33.56,5.93-25.58-11.73,5.12-11.33,21.93-9.79,26.7,1.25h58.01v-25.45h-38.55c-1.45,0-4.87-3.42-4.87-4.87v-35.56h-14.6c-7.65,16.53-32.61,8.95-27.36-9.39,3.65-12.76,21.82-13.2,26.73-1.05,5.28.73,21.28-1.77,24.75,1.67.18.18,1.7,2.98,1.7,3.16v34.81h32.19v-28.07c0-.24,3.13-3.37,3.37-3.37h28.07v-32.19h-34.81c-.18,0-2.98-1.52-3.16-1.7-3.44-3.47-.94-19.47-1.67-24.75-11.61-4.81-11.99-21.74-.02-26.31,18.54-7.09,27.66,18.96,10.47,26.93v14.6ZM86.05,11.57c-4.43-4.47-9.57,6.12-2.43,6.47,3.38.16,4.32-4.56,2.43-6.47ZM156.79,17.19c3.93,3.91,9.28-3.79,4.3-6.21-4.18-2.03-6.88,3.64-4.3,6.21ZM198.34,11.57c-3.93-3.91-9.28,3.79-4.3,6.21,4.18,2.03,6.88-3.64,4.3-6.21ZM270.93,10.77c-4.49.64-3.73,7.92,1.15,7.23,4.49-.64,3.73-7.92-1.15-7.23ZM12.63,80.37c-2.61.92-2.55,6.04.64,6.63,6.89,1.28,5.88-8.93-.64-6.63ZM338.99,80.37c-2.61.92-2.55,6.04.64,6.63,6.89,1.28,5.88-8.93-.64-6.63ZM258.4,96.72H96.72v161.68h161.68V96.72ZM17.19,156.79c-2.57-2.58-8.24.12-6.21,4.3,2.42,4.98,10.12-.37,6.21-4.3ZM343.55,156.79c-2.57-2.58-8.24.12-6.21,4.3,2.42,4.98,10.12-.37,6.21-4.3ZM17.19,198.34c3.91-3.93-3.79-9.28-6.21-4.3-2.03,4.18,3.64,6.88,6.21,4.3ZM343.55,198.34c3.91-3.93-3.79-9.28-6.21-4.3-2.03,4.18,3.64,6.88,6.21,4.3ZM17.19,269.07c-3.65-3.59-8.93,1.94-5.44,5.07,3.66,3.29,8.46-2.1,5.44-5.07ZM338.99,268.25c-2.61.92-2.55,6.04.64,6.63,6.89,1.28,5.88-8.93-.64-6.63ZM83.05,337.13c-4.49.64-3.73,7.92,1.15,7.23,4.49-.64,3.73-7.92-1.15-7.23ZM156.79,343.55c3.93,3.91,9.28-3.79,4.3-6.21-4.18-2.03-6.88,3.64-4.3,6.21ZM198.34,337.93c-3.93-3.91-9.28,3.79-4.3,6.21,4.18,2.03,6.88-3.64,4.3-6.21ZM269.07,343.55c2.97,3.02,8.36-1.78,5.07-5.44s-8.66,1.79-5.07,5.44Z"/>
      <path class="cls-1" d="M116.71,113.34l122.21.24c1.66,1.4,3.37,2.73,3.06,5.18l-.44,120.17c-1.4,1.66-2.73,3.37-5.18,3.06l-120.17-.44c-1.66-1.4-3.37-2.73-3.06-5.18v-118.35c.04-2.14,1.91-3.62,3.57-4.67ZM231.46,123.67h-107.79v107.79h107.79v-107.79Z"/>
      <path class="cls-1" d="M217.03,145.52c3.96-.87,6.48.72,6.95,4.7.68,5.77.8,25.14-.06,30.66s-9.66,6.08-10.45-.69c-.67-5.81-.81-25.11.06-30.66.32-2.05,1.4-3.56,3.49-4.02Z"/>
    </g>
  </g>
</svg>