<?xml version="1.0" encoding="UTF-8"?>
<svg id="Layer_1" xmlns="http://www.w3.org/2000/svg" version="1.1" xmlns:xlink="http://www.w3.org/1999/xlink" viewBox="0 0 24 24">
  <!-- Generator: Adobe Illustrator 29.2.1, SVG Export Plug-In . SVG Version: 2.1.0 Build 116)  -->
  <defs>
    <style>
      .st0 {
        fill: var(--primary);
      }
    </style>
  </defs>
  <path class="st0" d="M20.2,0H3.8C1.7,0,0,1.7,0,3.8v16.4c0,2.1,1.7,3.8,3.8,3.8h16.4c2.1,0,3.8-1.7,3.8-3.8V3.8c0-2.1-1.7-3.8-3.8-3.8ZM6,6.5h12c0,0,.3,0,.5,0l-5.2,4.6-1,.8c-.2.2-.5.2-.7,0l-.9-.8-5.2-4.6c.2,0,.3,0,.5,0ZM4.5,15.9V7.9c0-.3,0-.5.2-.8l5,4.4-5,5c-.1-.2-.2-.4-.2-.6ZM18,17.3H6c-.2.1-.4,0-.6,0l5-5,.6.5c.6.5,1.4.5,2,0l.6-.5,5,5c-.2,0-.4,0-.6,0ZM19.3,16.6l-5-5,5-4.4c.1.2.2.4.2.7v8.1c0,.2,0,.4-.2.6Z"/>
</svg>