<?xml version="1.0" encoding="UTF-8"?>
<svg id="Layer_1" xmlns="http://www.w3.org/2000/svg" version="1.1" xmlns:xlink="http://www.w3.org/1999/xlink" viewBox="0 0 24 24">
  <!-- Generator: Adobe Illustrator 29.2.1, SVG Export Plug-In . SVG Version: 2.1.0 Build 116)  -->
  <defs>
    <style>
      .st0 {
        fill: var(--primary);
      }
    </style>
  </defs>
  <path class="st0" d="M20.2,0H3.8C1.7,0,0,1.7,0,3.8v16.4c0,2.1,1.7,3.8,3.8,3.8h16.4c2.1,0,3.8-1.7,3.8-3.8V3.8c0-2.1-1.7-3.8-3.8-3.8ZM12,20v-1.5c0-.3.2-.5.5-.5s.5.2.5.5v1.4c-.3,0-.7,0-1,0ZM14,19.7v-.2c0-.3.2-.5.5-.5s.5.2.5.4c-.3,0-.7.3-1,.3ZM16,18.9v-.6c0-.9-.7-1.9-1.6-2.5,1.6-.3,2.6-1,3.2-1.9h1c.4,0,.8,0,1.1.2-.6,2.1-1.9,3.8-3.7,4.8ZM18.5,13.6h-.9c.5,0,.9,0,1.2,0s.8,0,1,0q0,.1,0,.2c-.3,0-.7,0-1.2-.2ZM18.9,13.3c-.3,0-.7,0-1,.1,0-.3.2-.7.2-1.1,0-1-.5-1.9-1.2-2.6,0-.8.3-2.2-.2-2.7-1.6,0-2.5,1.1-2.5,1.2-.5-.1-1-.2-1.5-.2s-1.4,0-2,.3l.2-.2s-.9-1.2-2.5-1.2c-.6.6-.4,2.1-.2,2.8-.7.7-1.2,1.6-1.2,2.5s0,.6.2.9c-.3,0-1.3,0-1.7,0s-.9,0-1.4.2c0-.4,0-.8,0-1.2,0-4.4,3.6-8,8-8s8,3.6,8,8,0,.9,0,1.4c-.2-.1-.6-.1-1-.1ZM6.1,15.2c.8.6,1,1.3,1.3,1.9.3.6.9.9,1.5.9h0v1.4c-2.3-.9-4.1-2.9-4.7-5.3.4,0,.9-.2,1.2-.2.2-.1.4-.1.6-.1.6,0,1.1,0,1.3.1.5,1,1.6,1.7,3.2,2-.4.2-.8.5-1,.9h-.7c-.7,0-1.1-.6-1.5-1.2-.4-.5-.9-.6-1.1-.6-.3,0-.4,0-.2.2ZM4.3,13.6c.3-.2.8-.3,1.2-.3s1.6.1,1.8.2q0,0,.1.2c-.4,0-1.3-.1-1.8,0-.4,0-.8.2-1.2.3,0,0-.1-.2-.1-.4ZM10,19.5c0-.3.2-.5.5-.5s.5.2.5.5v.4c-.3,0-.7-.1-1-.2v-.2Z"/>
</svg>