<?xml version="1.0" encoding="UTF-8"?>
<svg id="Layer_1" xmlns="http://www.w3.org/2000/svg" version="1.1" xmlns:xlink="http://www.w3.org/1999/xlink" viewBox="0 0 24 24">
  <!-- Generator: Adobe Illustrator 29.2.1, SVG Export Plug-In . SVG Version: 2.1.0 Build 116)  -->
  <defs>
    <style>
      .st0 {
        fill: var(--primary);
      }
    </style>
  </defs>
  <path class="st0" d="M12,7.7c-1.2,0-2.1.9-2.1,2.1s.9,2.1,2.1,2.1,2.1-.9,2.1-2.1-.9-2.1-2.1-2.1Z"/>
  <path class="st0" d="M20.2,0H3.8C1.7,0,0,1.7,0,3.8v16.4c0,2.1,1.7,3.8,3.8,3.8h16.4c2.1,0,3.8-1.7,3.8-3.8V3.8c0-2.1-1.7-3.8-3.8-3.8ZM16.9,12.9l-4.9,7.1-4.8-7.1c-.6-.9-.9-1.9-.9-3,0-3.2,2.5-5.8,5.7-5.8s2.1.3,3.1.9c2.7,1.7,3.5,5.2,1.8,7.9Z"/>
</svg>