<?xml version="1.0" encoding="UTF-8"?>
<svg id="Layer_1" xmlns="http://www.w3.org/2000/svg" version="1.1" xmlns:xlink="http://www.w3.org/1999/xlink" viewBox="0 0 24 24">
  <!-- Generator: Adobe Illustrator 29.2.1, SVG Export Plug-In . SVG Version: 2.1.0 Build 116)  -->
  <defs>
    <style>
      .st0 {
        fill: var(--primary);
      }
    </style>
  </defs>
  <path class="st0" d="M20.2,0H3.8C1.7,0,0,1.7,0,3.8v16.4c0,2.1,1.7,3.8,3.8,3.8h16.4c2.1,0,3.8-1.7,3.8-3.8V3.8c0-2.1-1.7-3.8-3.8-3.8ZM18.1,18.7c-2.4,1.8-5.8,2-10-3.6-4.2-5.6-3-8.9-.6-10.7,0,0,0-.1.2-.1.6-.3,1.4,0,1.7.6l1.2,2.3c.4.8.1,1.8-.8,2.3l-.9.5c-.2,0-.3.4-.2.6.9,2.1,2.3,3.9,4,5.4.2,0,.4,0,.6,0l.7-.8c.7-.7,1.7-.7,2.4,0l1.9,1.8c0,.1.1.1.1.1.4.6.3,1.4-.3,1.8Z"/>
</svg>