<?xml version="1.0" encoding="UTF-8"?>
<svg id="Layer_2" data-name="Layer 2" xmlns="http://www.w3.org/2000/svg" viewBox="0 0 383.28 292">
  <defs>
    <style>
      .cls-1 {
        fill: var(--primary);
      }
    </style>
  </defs>
  <g id="Layer_1-2" data-name="Layer 1">
    <path class="cls-1" d="M0,268.76v-68.87c3.68-3.99,8.1-4.55,11.07.53l.35,65.52c1.36,7.49,6.42,12.84,13.83,14.61l331.43.18c6.25-.12,15.34-8.53,15.34-14.6V74.89h-58.01c-.21,0-2.8-2.62-2.98-3.01-1.3-2.81,1.01-8.22,3.73-8.22h57.26V25.86c0-6.09-9.03-14.57-15.34-14.6l-312.92.03c-8,.38-9.93-9.13-2.25-11.3h316.7c12.93,1.74,23.94,12.74,25.07,25.84v240.33c-1.13,13.1-12.14,24.09-25.07,25.83l-333.88-.03c-12.28-2.22-21.12-11.36-24.32-23.21Z"/>
    <path class="cls-1" d="M0,23.24C.78,17.5,11.81-1.46,18.32,7.54c4.51,6.24-7.09,11.46-7.09,18.32v37.8h280.33c1.39,0,4,3.97,4.03,5.6.04,1.87-2.26,5.63-4.03,5.63H11.23v101.43c0,4.41-9.51,5.77-11.23.37V23.24Z"/>
    <path class="cls-1" d="M236.33,98.24c2.61-.58,4.82.08,6.59,2.07,9.2,13.6,23.43,26.02,32.53,39.33,3.36,4.91,2.58,5.52-.44,10.04-8.85,13.25-23.03,25.57-32.09,39.02-5.63,5.68-13.55-.19-9.27-7.03l30.52-37.42-30.52-36.9c-2.4-3.07-1.2-8.24,2.68-9.1Z"/>
    <path class="cls-1" d="M143.52,98.24c5-1.09,9.01,2.87,6.87,7.62l-31.32,38.92,30.79,37.37c4.06,6.38-3.87,11.88-9.13,6.89-9.39-13.23-22.01-25.14-31.41-38.21-3.95-5.5-5.04-5.89-.76-11.93,9.38-13.25,22.8-25.43,32.17-38.94.73-.83,1.7-1.49,2.79-1.72Z"/>
    <path class="cls-1" d="M208.62,98.25c5.2-1.56,9.25,3.14,7.35,8.1l-38.68,81.83c-4.38,6.08-12.72,1.81-10.01-5.52,12.1-23.91,22.14-48.93,34.18-72.85,1.3-2.59,4.72-10.82,7.16-11.55Z"/>
    <path class="cls-1" d="M233.01,260.31c-4.39-3.73-.98-9.61,4.63-10.27,16.99-2.02,37.95,1.51,55.37.06,8.16,2.52,7.11,10.97-1.46,11.93-16.97-1.08-35.67,1.44-52.43.03-1.71-.14-4.85-.68-6.12-1.75Z"/>
    <path class="cls-1" d="M203.39,223.26l56.68-.12c6.7,1.05,6.24,10.42.08,11.22-16.91,2.21-38.69-1.69-56.13-.08-6.24-.97-6.41-9.21-.63-11.02Z"/>
    <path class="cls-1" d="M127.78,250.21c11.74.99,27.47-1.89,38.72-.12,7.16,1.13,7.71,10.67-.77,11.87-6.72.94-29.82.94-36.54,0-7.63-1.07-8.64-9.02-1.41-11.75Z"/>
    <path class="cls-1" d="M139,224.81c2.79,3.31,1.21,8.82-3.19,9.47l-42.6.03c-5.73-1.99-5.46-10.19.77-11.17,12.88,1.11,28.64-1.64,41.16-.08,1.16.14,3.15.89,3.86,1.74Z"/>
    <path class="cls-1" d="M78.4,250.23c3.94-.71,22.04-.77,25.85,0,7.13,1.44,7.21,10.58-1.39,11.74-4.32.58-21.14.67-25.06-.26-6.52-1.54-6.28-10.24.6-11.48Z"/>
    <path class="cls-1" d="M43.2,223.26c3.02-.67,25.1-.67,28.12,0,5.19,1.16,5.76,10.03-.63,11.02-3.96.61-23.92.73-27.63.03-5.08-.96-5.76-9.73.14-11.05Z"/>
    <path class="cls-1" d="M76.9,27.16c17.08-3.47,16.99,23.21.76,20.61-11.17-1.79-11.19-18.49-.76-20.61Z"/>
    <path class="cls-1" d="M45.46,27.15c14.76-2.53,16.9,19.16,3.49,20.74s-16.09-18.58-3.49-20.74Z"/>
    <path class="cls-1" d="M109.08,27.16c14.68-3.02,17.84,19.41,3.48,20.75-13.34,1.25-15.39-18.3-3.48-20.75Z"/>
    <path class="cls-1" d="M192.93,250.23c3.36-.6,16.43-.61,19.34.52,4.29,1.67,4.83,7.81,1.01,10.09-2.93,1.75-18.79,1.77-22.07.49-5.86-2.29-4.63-9.97,1.73-11.1Z"/>
    <path class="cls-1" d="M317.93,250.23c3.04-.54,15.52-.66,18.38-.02,6.45,1.45,6.7,10.3-.77,11.64-3.5.63-13.97.57-17.45-.16-7.36-1.54-6.9-10.26-.16-11.46Z"/>
    <path class="cls-1" d="M159.97,223.26c2.53-.56,17.39-.53,19.71.17,5.28,1.61,5.16,9.96-.46,10.85-2.83.45-17.46.45-19.83-.29-5.2-1.63-4.51-9.6.57-10.73Z"/>
  </g>
</svg>