<?xml version="1.0" encoding="UTF-8"?>
<svg id="Layer_2" data-name="Layer 2" xmlns="http://www.w3.org/2000/svg" viewBox="0 0 373.72 383.31">
  <defs>
    <style>
      .cls-1 {
        fill: #231f20;
      }
    </style>
  </defs>
  <g id="Layer_1-2" data-name="Layer 1">
    <g>
      <path class="cls-1" d="M361.54,0c7.12,2.85,10.5,7.77,11.22,15.36-2.21,34.58,2.98,72.92.04,107.06-.58,6.78-3.37,12.2-9.97,14.73l-144.66.61c-6.86-.36-12.74-6.23-13.1-13.1l.03-112.31c.72-6.26,5.83-10.1,11.23-12.35h145.22ZM217.25,12.15l.12,113.67,142.74-.37-.37-113.55-142.49.25Z"/>
      <path class="cls-1" d="M192.37,155.7h30.32c3.62,0,11.79,7.05,12.47,11.11,7.54,1.19,21.55-2.42,27.32,3.37,1.53,1.53,1.88,4.83,3.59,5.04,10.58-1.31,24.94,1.65,35.04-.23,7.62-1.42,25.26-12.09,33.73-15.68s20.31-5.18,29.9-3.44c5.91,1.07,7.6,6.05,8.06,11.4,2.47,28.68-1.92,60.83,0,89.88-.54,6.18-2.66,10.81-9.38,11.58-4.27.48-15.91.52-20.03-.18-11.65-1.97-30.28-16.38-42.83-19.3h-35.08c-1.09,2.86-5.98,8.25-9.11,8.25h-19.84v17.96h78.97c.4,0,4.22,1.45,4.91,1.82,3.98,2.11,6.3,6.07,6.72,10.5,1,10.67-.53,23.28-.37,34.12-1.15,3.72-6.56,4.61-9.19,2-.18-.18-1.7-2.98-1.7-3.16v-32.19l-1.12-1.12h-104.8l-1.12,1.12v82.34l1.12,1.12h104.8l1.12-1.12v-26.2c0-2.26,3.74-4.93,6.17-4.73,3.63.29,4.8,2.94,5.09,6.19.48,5.34.77,22.85-.21,27.56-.89,4.29-5.81,8.61-10.11,9.35l-107.61.18c-3.57.8-11.6-6.73-11.6-9.36v-68.49H13.84c-.29,0-4.58-1.83-5.27-2.22-5.28-2.99-7.84-8.82-8.57-14.63l.07-116.68c1.13-8.05,5.51-13.73,13.44-15.88-.09-17.11-2.43-28.59,9.3-42.22,6.09-7.07,23.46-24.73,31.61-27.52,6.8-2.32,13.58-.39,18.39-1.82,2.27-.67,2.97-4.34,7.71-5.02l102.13.28c3.57,1.57,6.05,2.84,7.61,6.61,2.03,4.9,2.14,24.05.22,28.96-.79,2.01-2.96,3.7-3.32,5.66s-.29,14.63.35,16.05c.55,1.21,4.85,4.5,4.85,6.37v12.35ZM147.45,90.57h-63.63v20.21h23.58c2.04,0,4.95,3.06,5.3,5.2.78,4.71-3.72,6.45-7.52,6.81-5.28.49-24.49.66-28.36-1.64-1.48-.88-2.68-3.09-4.01-3.48s-5.82-.4-7.18,0-19.24,18.3-19.24,19.68v18.34h103.3v-11.6c0-2.51,5.24-7.02,5.24-7.49v-13.85h-22.08c-6.75,0-6.75-11.98,0-11.98h14.6v-20.21ZM179.64,90.57h-20.96v20.21h20.96v-20.21ZM25.44,130.62c-1.2,7.24.89,17.49,0,25.08h9.73v-21.33c0-3.66,17.01-20.65,20.61-23.56,5.16-4.16,10.1-5.8,16.82-5.26-.41-2.12,1.09-8.87-1.23-9.63-5.95-.45-12.41-.19-17.44,3.31-4.17,2.9-21.89,20.74-25.14,25.01-1.04,1.37-3.1,4.85-3.35,6.38ZM175.9,122.76h-9.73v11.6c2.38,2.25,6.63.69,9.73,1.12v-12.73ZM181.14,146.71h-20.21v8.98h20.21v-8.98ZM125.75,233.54v-65.5l-1.12-1.12H16.09c-.52,0-4.12,3.03-4.12,3.37v63.25h113.78ZM163.17,166.92h-26.2v66.62h14.6c4.12,0,11.6-8.2,11.6-12.35v-54.27ZM224.55,275.46v-105.17c0-.34-3.6-3.37-4.12-3.37h-46.04v56.51c0,.62-1.87,5.64-2.34,6.64-2.96,6.28-9.54,11.59-16.03,13.91-.91,4.7,1.59,14.33-5.97,14.17-6.76-.14-5.75-8.85-5.6-13.39H38.17v49.4h106.29v-17.59c0-1.39,3.97-4,5.6-4.03,1.87-.04,5.63,2.26,5.63,4.03v17.59h41.92c-.41-6.12-.21-12.21,5.29-16.04,1.04-.72,5.37-2.67,6.31-2.67h15.35ZM360.79,166.92h-15.35l-35.1,16.55-1.24,2.5.41,54.32,35.94,17.21h15.35v-90.57ZM254.5,178.15h-17.96v68.12h17.96v-68.12ZM297.91,186.39h-32.19v9.73h32.19v-9.73ZM297.91,207.35h-32.19v9.73h32.19v-9.73ZM297.91,228.3h-32.19v9.73h32.19v-9.73ZM26.94,244.77h-14.97v46.04c0,.34,3.6,3.37,4.12,3.37h10.85v-49.4Z"/>
      <path class="cls-1" d="M243,301.9c1.57-.09,3.56.79,5.04,1.36,5.69,2.17,35.08,16.57,38.6,19.78,6.77,6.2,2.1,11.74-3.95,15.43s-30.92,16.81-36.41,18.23c-5.6,1.46-10.58-1.71-11.27-7.49-1.49-12.39,1.11-27.69.06-40.4.51-3.2,4.71-6.73,7.92-6.92ZM246.26,315.13v28.44l25.97-12.58,1.73-2.01-27.7-13.86Z"/>
      <path class="cls-1" d="M267.04,41.3c2.24-.3,3.76.71,5.68,1.47,7.32,2.91,32.31,14.78,37.87,19.02s4.83,10.93-.93,14.7c-7.12,4.65-29.38,16.2-37.21,18.93-6.19,2.16-11.87.43-12.73-6.7-.97-8.09-.97-31.61,0-39.71.46-3.82,3.42-7.18,7.32-7.71ZM270.96,54.64v28.44l27.7-14.59-27.7-13.86Z"/>
      <path class="cls-1" d="M267.75,21.18c1.07.91,1.81,3.2,1.78,4.61-.19,7.71-16.99,8.32-15.76-1.4.7-5.53,10.53-6.15,13.99-3.22Z"/>
      <path class="cls-1" d="M314.22,19.64c13.81-1.65,12.16,14.76-1.56,11.64-6.62-1.51-6.85-10.64,1.56-11.64Z"/>
      <path class="cls-1" d="M349.35,29.73c-4.43,4.44-18.32,1.31-13.18-7.57,4.03-6.96,20.75-.03,13.18,7.57Z"/>
      <path class="cls-1" d="M286.49,19.63c12.72-2.18,13.97,13.19.56,11.83-8.76-.89-8-10.55-.56-11.83Z"/>
      <path class="cls-1" d="M232.63,19.64c14.03-1.68,12.25,14.79-1.56,11.64-6.04-1.38-6.6-10.66,1.56-11.64Z"/>
      <path class="cls-1" d="M284.22,107.2c3.32-.97,11.06-.9,12.03,3.37,2.79,12.21-21.19,9.18-14.4-1.25.5-.77,1.48-1.87,2.36-2.13Z"/>
      <path class="cls-1" d="M257.28,107.2c5.24-1.2,13.64-.41,12.04,6.78-1,4.48-7.56,4.97-11.29,4.12-5.26-1.19-6.03-9.69-.75-10.91Z"/>
      <path class="cls-1" d="M311.17,107.2c4.13-1.2,12.4-.96,12.72,4.82.39,7.11-12.07,8.79-15.41,2.77-1.39-2.51-.02-6.81,2.68-7.59Z"/>
      <path class="cls-1" d="M240.81,116.56c-4.19,4.21-17.47,1.86-13.62-7.26,1.25-2.97,9.94-2.95,12.32-1.88,3.26,1.47,3.74,6.69,1.3,9.14Z"/>
      <path class="cls-1" d="M349.35,116.56c-4.12,4.14-17.59,1.88-13.46-7.1,1.39-3.03,9.6-3.19,12.16-2.04,3.26,1.47,3.74,6.69,1.3,9.14Z"/>
      <path class="cls-1" d="M190.69,173.86c4.21-.63,16.58-.79,20.03,1.28,3.05,1.83,3.85,5.31,4.13,8.6.86,10.11.97,30.44-.04,40.44-.35,3.42-1.68,6.92-5.05,8.42s-19.19,1.53-22.57-.23-4.28-5.45-4.57-8.9c-.84-9.86-1.05-31.5.11-41.11.59-4.83,3.16-7.77,7.97-8.5ZM202.85,185.64h-8.23v35.93h8.23v-35.93Z"/>
      <path class="cls-1" d="M100.81,272.71c4.32,3.96.86,9.65-4.61,10.26-8.14.91-32.43,1.02-40.37-.09-7.86-1.1-8.05-10.93.68-11.91,8.66-.97,31.04-.99,39.69-.02,1.38.15,3.61.84,4.61,1.76Z"/>
      <path class="cls-1" d="M63.38,254.74c7.87,7.22-8.19,14.84-12.4,7.54-4.62-8.01,7.32-12.2,12.4-7.54Z"/>
      <path class="cls-1" d="M82.1,254.74c7.87,7.22-8.19,14.84-12.4,7.54-4.62-8.01,7.32-12.2,12.4-7.54Z"/>
      <path class="cls-1" d="M100.81,254.74c7.87,7.22-8.19,14.84-12.4,7.54-4.62-8.01,7.32-12.2,12.4-7.54Z"/>
      <path class="cls-1" d="M123.31,271.14c12.26-2.1,12.75,13.09.65,11.76-8.02-.89-8.52-10.4-.65-11.76Z"/>
      <path class="cls-1" d="M123.31,253.18c12.26-2.1,12.75,13.09.65,11.76-8.02-.89-8.52-10.4-.65-11.76Z"/>
      <path class="cls-1" d="M25.23,214.24l37.22-.12c6.41,1.36,6.83,8.84.77,11.17H25.09c-5.5-2.13-5.59-9.19.14-11.05Z"/>
      <path class="cls-1" d="M348.59,242.31c-3.58,4.22-10.38.74-10.27-4.63,1.35-16.17-1.75-35.09.02-50.92.99-8.85,10.89-9.03,11.98.75,1.28,11.49,1.02,36.93.03,48.69-.14,1.71-.68,4.85-1.75,6.12Z"/>
    </g>
  </g>
</svg>