<?xml version="1.0" encoding="UTF-8"?>
<svg id="Layer_2" data-name="Layer 2" xmlns="http://www.w3.org/2000/svg" viewBox="0 0 511.04 510.04">
  <defs>
    <style>
      .cls-1 {
        fill: #231f20;
      }
    </style>
  </defs>
  <g id="Layer_1-2" data-name="Layer 1">
    <g>
      <path class="cls-1" d="M511.04,26.98v368.28c-1.52,3.44-1.25,7.16-2.52,10.95-1.92,5.71-6.83,11.77-11.72,15.23-2.27,1.61-10.91,5.19-11.25,5.71-1.34,2.05.17,7.52-3.59,12.38-1.31,1.68-6.52,5.63-8.34,5.63h-141.22v8.98h23.45c8,0,18.36,6.79,22.28,13.65,5.62,9.81,8.15,35.78-3.82,42.24h-238.53c-3.02-3.03-6.19-4.81-6.92-9.55-.79-5.12-.58-21.22.62-26.2,2.32-9.63,14.86-20.14,24.77-20.14h24.45v-25.95h-72.36c-7.42,0-11.86-14.06,1.09-15.88l159.1-.09v-20.46c0-1.63,4.02-8.06,5.63-9.34,4.33-3.43,10.08-3.42,15.33-3.13v-12.98H15.01v31.44c0,3.66,6.36,11.37,9.97,12.98,10.1,4.52,33.96-2.08,40.99,3.92,6.25,5.34,1.44,12.45-5.64,13.44-23.96,3.37-55.19.04-60.21-28.44L0,30.44C1.32,14.3,14.33,1.32,30.44,0h450.19c15.54,1.34,26.44,12.37,30.4,26.98ZM495.07,86.87V28.48c0-4.86-8.98-12.41-13.92-13.03l-451.99.24c-4.69.7-13.16,8.21-13.16,12.79v58.39h479.06ZM495.07,101.84H15.01v249.51h251.51v-41.42c0-7.81,13.79-14.59,20.96-12.48v-14.97c-9.04,1.09-19.08-2.95-20.72-12.72-1.2-7.14-1.19-33.29-.15-40.59.9-6.33,6.69-12.59,13.34-12.61l103.82.08c5.49,1.65,7.15,8.74,3.24,12.68-.24.24-3.98,2.27-4.22,2.27h-101.3v34.93h188.63v-34.93h-43.42c-.24,0-3.98-2.03-4.22-2.27-3.72-3.74-2.02-11.21,3.25-12.68,14.66,1.5,33.71-2.14,47.82.04,6.42.99,10.88,7.22,11.54,13.41.78,7.33,1.1,34.14-.23,40.69-1.73,8.49-12.69,13.31-20.73,11.71v14.97c5.39-.46,12.63.32,16.63,4.33.65.66,4.33,6.73,4.33,7.15v42.42h9.98V101.84ZM449.16,282.48h-146.71v14.97h146.71v-14.97ZM470.12,313.42h-188.63v34.93h188.63v-34.93ZM449.16,363.33h-146.71v15.97h146.71v-15.97ZM495.07,366.32h-30.94v12.98c6.47-.4,12.88-.25,17.41,5.04.77.91,3.55,5.69,3.55,6.43v19.46c3.3.64,9.98-8.79,9.98-10.48v-33.43ZM470.12,394.27h-188.63v35.93h188.63v-35.93ZM266.52,428.2h-72.86v25.95h123.76v-8.98h-39.42c-.44,0-6.74-3.91-7.5-4.76-2.61-2.91-4.26-8.3-3.98-12.21ZM367.32,495.07c.07-9.33,1.32-22.87-10.46-24.97l-203.67-.02c-3.01-.72-9.44,6.88-9.44,8.53v16.47h223.56Z"/>
      <path class="cls-1" d="M221.88,161.44c-4.19-4.21-1.91-12.07,4.16-12.75h159.79c9.19,1.21,8.39,14.48-1.03,15.04l-155.77.03c-2-.01-5.81-.98-7.15-2.33Z"/>
      <path class="cls-1" d="M120.52,217.83l91.62-.23c9.28,1.08,9.64,13.66-2.02,14.99-26.91,3.06-59.34-2.3-86.85.02-8.57-.7-11.33-11.82-2.76-14.78Z"/>
      <path class="cls-1" d="M69.62,186.39c-2.62,2.62-6.62,2.68-9.66.73-3.37-2.17-21.76-20.74-24.52-24.38-3.84-5.07-2.72-7.22.99-12.02,3-3.87,18.25-19.35,21.98-21.94,6.2-4.3,14.54-1.17,13.3,6.23-1.08,6.45-20.2,20.35-19.72,23.07,3.48,5.32,20.21,17.26,19.88,23.01-.06,1.03-1.55,4.57-2.26,5.29Z"/>
      <path class="cls-1" d="M117.51,127c1.39-.42,3.33-.47,4.75-.2,4.56.89,21.98,22.67,27.53,26.38,1.51,2.13,1.26,5.2.5,7.6-.57,1.79-21.32,22.95-24.01,24.89-3.79,2.73-8.5,4.55-11.96,0-7.05-9.26,13.67-21.57,18.44-28.44,0-1.38-17.6-15.91-19.18-19.71s-.49-9.19,3.94-10.52Z"/>
      <path class="cls-1" d="M176.97,293.18c-4.19-4.2-1.91-12.07,4.16-12.75,21.48,1.93,46.95-2.41,67.94.03,9.45,1.1,9.17,13.74-2.02,14.99-13.85,1.55-50.06,1.57-63.9.03-1.65-.18-5.09-1.2-6.19-2.3Z"/>
      <path class="cls-1" d="M87.15,250.83c1.09-1.1,4.54-2.12,6.18-2.3,19.54-2.17,42.95,1.69,62.92,0,8.5.81,11.51,11.48,2.94,14.97l-67.89.08c-5.95-.53-8.1-8.78-4.16-12.75Z"/>
      <path class="cls-1" d="M291.75,194.38c-3.31-3.32-2.65-8.99,1.15-11.76l69.91-.91c8.99,4.1,7.04,13.83-2.97,14.95-13.43,1.5-48.48,1.52-61.9.03-1.65-.18-5.09-1.2-6.19-2.3Z"/>
      <path class="cls-1" d="M170.42,181.9l57.61-.15c8.06,1.27,7.66,13.49-.99,14.85-8.22,1.3-46.56,1.3-54.78,0s-10.19-12.18-1.84-14.7Z"/>
      <path class="cls-1" d="M99.55,127c6.1-1.83,11.16,2.87,10.08,9.02-.87,4.98-15.75,42.52-18.57,47.36-5.12,8.77-14.31,5.63-14.73-3.73l18.02-46.88c.88-1.84,3.31-5.2,5.21-5.77Z"/>
      <path class="cls-1" d="M397.97,241.78l53.62-.15c8.31,1.3,8.68,12.24,1.03,14.89h-54.85c-7.67-2.76-7.39-12.12.19-14.73Z"/>
      <path class="cls-1" d="M162.44,293.18c-1.1,1.1-4.53,2.12-6.19,2.3-10.69,1.19-38.26,1.19-48.95,0-9.35-1.04-11.7-11.04-2.95-14.97h54.84c5.43,1.6,7.19,8.7,3.24,12.67Z"/>
      <path class="cls-1" d="M42.67,217.83l54.66-.19c8.53,3.48,7.19,13.56-2.07,14.86-8.63,1.21-42.35,1.36-50.75.04-7.92-1.25-9.96-12.22-1.84-14.7Z"/>
      <path class="cls-1" d="M42.67,280.7h43.49c6.99,1.6,7.19,13.25-2.87,14.67-6.8.96-32.05,1.03-38.6-.14-8.4-1.5-10.13-11.57-2.02-14.52Z"/>
      <path class="cls-1" d="M295.74,243.84c1.09-1.1,4.54-2.12,6.18-2.3,6.99-.78,29.26-.97,35.9.08,8.67,1.38,9.05,13.59.99,14.85-6.3.99-32.48.98-38.8,0-5.97-.92-8.47-8.41-4.27-12.64Z"/>
      <path class="cls-1" d="M166.97,161.47c-3.47-3.77-2.09-11.28,3.45-12.51,4.08-.9,25.24-.85,29.66-.15,7.86,1.24,7.57,12.96-.15,14.7-4.2.94-21.98.77-26.76.24-1.52-.17-5.28-1.27-6.21-2.27Z"/>
      <path class="cls-1" d="M220.34,248.79c4.48-.81,22.98-.84,27.05.43,7.12,2.22,7.19,13.05-.4,14.25-3.86.61-26.34.62-29.44-.38-6.13-1.98-5.86-12.74,2.79-14.29Z"/>
      <path class="cls-1" d="M245.84,194.38c-3.42-3.44-2.43-11.07,2.42-12.49,2.66-.78,23.3-.68,26.68-.14,6.7,1.05,7.44,9.87,2.53,13.39-3.02,2.16-20.89,2.06-25.45,1.55-1.65-.18-5.08-1.2-6.19-2.3Z"/>
      <path class="cls-1" d="M43.66,248.76c3.72-.83,21.5-.66,25.08.45,7.58,2.36,6.37,13-.36,14.29-3.22.61-23.62.45-26.47-.43-6.82-2.1-5.29-12.74,1.76-14.31Z"/>
      <path class="cls-1" d="M183.42,248.79c4.34-.78,13.47-.82,17.29,1.19,6.43,3.39,4.51,12.36-1.58,13.52-2.81.54-16.84.36-19.2-.72-5.76-2.64-4.12-12.63,3.49-13.99Z"/>
      <path class="cls-1" d="M361.04,241.77c8.06-1.81,27.35.43,19.13,12.15-2.45,3.49-17.31,3.55-20.81,2.09-6.04-2.51-5.53-12.62,1.68-14.24Z"/>
      <path class="cls-1" d="M161.45,29.21c27.53-5.09,37.52,30.42,15.3,41.25-17.45,8.5-36.65-8.01-30.72-26.73,2-6.3,8.87-13.31,15.42-14.52ZM161.95,55.7c6.22,6.22,16.62-4.24,9.72-10.21s-15.41,4.51-9.72,10.21Z"/>
      <path class="cls-1" d="M105.56,29.21c27.53-5.09,37.52,30.42,15.3,41.25-19.63,9.57-40.05-12.44-28.41-31.41,2.45-3.99,8.4-8.97,13.11-9.84ZM106.06,55.7c6.22,6.22,16.62-4.24,9.72-10.21s-15.41,4.51-9.72,10.21Z"/>
      <path class="cls-1" d="M50.7,29.24c32.45-5.07,34.82,41.27,6.59,43.57-28.02,2.28-32.74-39.49-6.59-43.57ZM50.17,55.7c5.49,5.49,16.47-2.44,10.21-9.71-5.93-6.9-16.45,3.48-10.21,9.71Z"/>
      <path class="cls-1" d="M455.86,406.54c5.76,4.89,1,12.69-6.29,13.59-9.89,1.22-38.96,1.31-48.73,0-11.83-1.59-11.84-14.2,0-15.79,10.14-1.37,37.37-1.15,47.82-.09,1.87.19,5.84,1.15,7.19,2.3Z"/>
      <path class="cls-1" d="M301.18,404.48c5.47-.98,32.11-1.02,37.26.19,9.29,2.19,8.92,14.27-3.58,15.52-6.57.66-28.68.95-34.49-.42-9.04-2.12-8.58-13.62.8-15.3Z"/>
      <path class="cls-1" d="M363.07,404.49c6.04-1.01,18.46-1.17,18.93,7.4s-11.94,9.09-18.08,8.24c-11.55-1.58-11.8-13.8-.85-15.64Z"/>
      <path class="cls-1" d="M396.97,323.61l55.66-.18c7.73,2.74,7.2,13.6-1.03,14.89s-44.64,1.27-52.78,0-9.07-11.38-1.85-14.71Z"/>
      <path class="cls-1" d="M295.74,336.1c-4.2-4.23-1.7-11.71,4.27-12.64,6.32-.98,32.5-.99,38.8,0,8.05,1.26,7.67,13.48-.99,14.85-6.63,1.05-28.9.86-35.9.08-1.65-.18-5.09-1.2-6.18-2.3Z"/>
      <path class="cls-1" d="M360.04,323.61c2.52-.73,15.74-.53,18.02.53,5.86,2.73,4.3,12.51-2.47,14.02-3.17.71-13.1.61-16-.55-6.44-2.56-5.3-12.33.45-14.01Z"/>
    </g>
  </g>
</svg>