<?xml version="1.0" encoding="UTF-8"?>
<svg id="Layer_1" xmlns="http://www.w3.org/2000/svg" version="1.1" xmlns:xlink="http://www.w3.org/1999/xlink" viewBox="0 0 24 24">
  <!-- Generator: Adobe Illustrator 29.2.1, SVG Export Plug-In . SVG Version: 2.1.0 Build 116)  -->
  <defs>
    <style>
      .st0 {
        fill: var(--primary);
      }
    </style>
  </defs>
  <path class="st0" d="M20.2,0H3.8C1.7,0,0,1.7,0,3.8v16.4c0,2.1,1.7,3.8,3.8,3.8h16.4c2.1,0,3.8-1.7,3.8-3.8V3.8c0-2.1-1.7-3.8-3.8-3.8ZM19,9.3h-3.7c-.2-1.7-.8-3.2-1.7-4.6,2.5.6,4.5,2.3,5.4,4.6ZM14.7,12.1c0,.7,0,1.3-.1,2h-5.2c-.1-.7-.1-1.3-.1-2s0-1.4.1-2h5.2c.1.7.1,1.3.1,2ZM12,4.5c1.2,0,2.1,2.2,2.5,4.8h-5c.4-2.5,1.3-4.8,2.5-4.8ZM10.4,4.8c-1,1.3-1.5,2.9-1.7,4.5h-3.7c.9-2.3,3-4,5.4-4.5ZM4.8,10.1h3.8c0,.6,0,1.3,0,2s0,1.3,0,2h-3.8c-.4-1.3-.4-2.7,0-4ZM5,14.8h3.7c.2,1.7.7,3.2,1.7,4.6-2.5-.6-4.5-2.3-5.4-4.6ZM12,19.6c-1.2,0-2.1-2.2-2.5-4.8h5c-.4,2.6-1.3,4.8-2.5,4.8ZM13.6,19.4c1-1.4,1.5-2.9,1.7-4.6h3.7c-.9,2.3-3,4.1-5.4,4.6ZM19.2,14.1h-3.8c0-.6,0-1.3,0-2s0-1.3,0-2h3.8c.4,1.3.4,2.7,0,4Z"/>
</svg>