<?xml version="1.0" encoding="UTF-8"?>
<svg id="Layer_2" data-name="Layer 2" xmlns="http://www.w3.org/2000/svg" viewBox="0 0 383.14 383.39">
  <defs>
    <style>
      .cls-1 {
        fill: var(--primary);
      }
    </style>
  </defs>
  <g id="Layer_1-2" data-name="Layer 1">
    <g>
      <path class="cls-1" d="M196.87.22c9.12,1.16,19.75,9.7,23.6,17.93,8.89,19.02-1.52,38.9-20.64,45.4l-.03,56.67c-1.43,10.56-15.06,10.24-16.34,0l-.04-56.66c-19.05-6.72-29.61-26.21-20.63-45.41,3.85-8.24,14.48-16.77,23.6-17.93,2.36-.3,8.12-.3,10.48,0ZM191.38,16.23c-21.29.34-19.95,32.45.63,31.94,20.53-.51,20.36-32.28-.63-31.94Z"/>
      <path class="cls-1" d="M0,356.32v-10.47c4.51-17.86,19.02-28.59,37.74-26.12,2.32.31,9.8,3.88,10.9,3.34l32.94-32.97c8.71-7.58,19.23,2.92,11.64,11.63l-32.99,32.92c-.54,1.09,3.04,8.57,3.35,10.89,5.04,38.17-44.14,52.33-60.94,19.01l-2.62-8.23ZM29.76,335.57c-20.98,2.72-16.23,36.36,6.33,31.02,18.38-4.35,13.85-33.63-6.33-31.02Z"/>
      <path class="cls-1" d="M47.91,278.14c-1.5,6.94-14.71,7.77-15.75-.72-.07-48.4.19-96.79.07-145.19,0-1.55-.79-3-.73-4.4.11-2.8,2.45-6.59,5.19-7.54,33.32-10.58,65.97-25.73,99.17-36.3,4.76-1.52,9.78-4.28,13.87.38,3.87,4.41,2.34,9.75-2.48,12.51l-83.61,31.25,128.24,46.95,127.75-46.95-83.61-31.26c-7.94-4.18-4.89-15.26,3.91-15.18l106.66,38.59c2.77,1.01,5.08,4.76,5.18,7.54.05,1.41-.73,2.85-.73,4.4-.14,48.4.16,96.79.07,145.19-1.06,5.48-7.04,7.93-11.95,5.14-.9-.51-3.81-3.7-3.81-4.43v-138.77l-135.49,50.5v173.93l75.3-27.63c9.34-1.02,13.05,10.85,4.7,15.2l-85.23,31.52-3.39.44-87.87-31.94c-7.66-3.97-5.28-14.72,3.29-15.32l76.73,27.74v-173.93l-135.49-50.5v138.77Z"/>
      <path class="cls-1" d="M293.21,287.65c3.19-.72,5.56.25,8.07,2.09l33.34,33.33c1.09.54,8.58-3.04,10.9-3.34,41.47-5.47,51.51,50.97,15.69,62.06-28.58,8.85-51.23-20.81-37.95-46.68l-34.19-34.65c-3.56-4.18-1.04-11.64,4.15-12.81ZM348.62,335.55c-18.07,2.92-17.32,30.28,1.81,31.48,23.28,1.47,20.94-35.16-1.81-31.48Z"/>
    </g>
  </g>
</svg>