<?xml version="1.0" encoding="UTF-8"?>
<svg id="Layer_2" data-name="Layer 2" xmlns="http://www.w3.org/2000/svg" viewBox="0 0 371.36 371.24">
  <defs>
    <style>
      .cls-1 {
        fill: var(--primary);
      }
    </style>
  </defs>
  <g id="Layer_1-2" data-name="Layer 1">
    <g>
      <path class="cls-1" d="M235.82,311.31l8.33,29.84c1.44.93,22.16-.53,26.43.14,1.79.28,3.62,1.44,4.35,3.14.9,2.11,1,19.81.4,22.48s-3.4,4.49-6.17,4.31l-170.14-.6c-1.74-.91-2.83-2.39-3.14-4.35-.59-3.74-.52-15.54-.06-19.43.35-2.96,1.87-5.07,4.93-5.55,4.27-.67,24.99.79,26.43-.14l8.33-29.84H16.87c-6.6,0-17-11.38-16.85-18.33l-.03-232.08c.93-10.22,9.54-18.61,19.84-19.09h332.41c9.96.91,18.17,9.11,19.09,19.09v231.36c.57,7.23-10.09,19.06-16.87,19.06h-118.64ZM359.33,263.4V60.92c0-1.76-4.55-6.49-6.71-6.76H18.72c-2.17.27-6.71,5-6.71,6.76v202.48h347.32ZM359.33,275.38H12.01v16.84c0,1.76,4.55,6.49,6.71,6.76h333.89c2.17-.27,6.71-5,6.71-6.76v-16.84ZM140.01,341.25h91.32l-8.15-29.51-1.18-.48-73.66.15-8.33,29.84ZM263.52,353.23H107.82v5.99h155.7v-5.99Z"/>
      <path class="cls-1" d="M118.1.09l147.96-.09c20.97,3.66,20.39,33.01-.67,35.84l-146.66-.04c-4.75-2.93-25.98-11.04-28.03-14.63-1.64-2.87-1.07-6.04,1.44-8.12,1.39-1.15,24.38-12.64,25.96-12.96ZM125.79,11.89c-4.89-.56-10.05,2.47-14.24,4.88-.77.44-1.88-.04-1.48,1.48.21.82,13.6,7.1,15.72,5.62v-11.98ZM264.64,11.89h-126.88v11.98h126.88c.18,0,2.98-1.52,3.16-1.7,3.2-3.23,1.18-9.51-3.16-10.27Z"/>
      <path class="cls-1" d="M119.8,196.04c-40.6-10.26-49.32-65.7-12.95-87.44,37.38-22.35,82.36,11.92,71.12,53.91-2.63,9.83-8.22,16.71-14.74,24.15l16.1,32.56c1.39,4.03-.93,8.02-5.25,8.27-19.31-1.36-40.91,1.75-59.94.02-15.51-1.41,3.96-24.23,5.65-31.46ZM156.49,174.32c1.93,1.47,7.99-9.7,8.59-11.24,13.52-34.7-27.72-64.64-56.11-41.14-23.71,19.64-13.29,57.93,16.75,62.8,2.92-4.77,11.15-26.25,14.75-28.3,8.99-5.13,12.79,12.33,16.02,17.88ZM144.49,175.83c-1.75-.38-1.2.24-1.67.96-.58.89-3.87,7.64-3.56,8.02l7.45-2.28-2.23-6.7ZM163.96,215.5l-11.68-22.4c-6.27,2.75-12.94,4.24-19.77,4.8l-8.97,17.6h40.42Z"/>
      <path class="cls-1" d="M205.68,116.85c21.96,6.43,44.99,11.87,66.65,19.1,4.61,1.54,9.54,2.15,8.86,8.44-6.13,19.59-11.14,39.55-17.29,59.12-1.79,5.68-2.51,15.5-10.11,14.67-19.59-6.13-39.55-11.14-59.12-17.29-5.68-1.79-15.5-2.51-14.67-10.11l20.44-69.45c.66-2.61,2.72-3.97,5.26-4.48ZM210.83,130.96l-16.63,56.88,56.62,16.12,16.12-56.61-56.12-16.39Z"/>
      <path class="cls-1" d="M28.26,77.93c3.74-.83,21.77-.67,26.06-.18,3.46.4,5.22,2.17,5.61,5.61.44,3.8.54,23.78-.35,26.63-.73,2.35-2.93,3.45-5.26,3.72-3.79.44-23.78.54-26.63-.35-2.35-.73-3.45-2.93-3.72-5.26-.62-5.34-.62-19.39,0-24.73.3-2.58,1.61-4.84,4.29-5.44ZM47.94,89.74h-11.98v11.98h11.98v-11.98Z"/>
      <path class="cls-1" d="M315.7,77.93c3.74-.83,21.77-.67,26.06-.18,3.46.4,5.22,2.17,5.61,5.61.44,3.8.54,23.78-.35,26.63-.73,2.35-2.93,3.45-5.26,3.72-3.79.44-23.78.54-26.63-.35-2.35-.73-3.45-2.93-3.72-5.26-.62-5.34-.62-19.39,0-24.73.3-2.58,1.61-4.84,4.29-5.44ZM335.38,89.74h-11.98v11.98h11.98v-11.98Z"/>
      <path class="cls-1" d="M28.26,119.84c3.74-.83,21.77-.67,26.06-.18,3.46.4,5.22,2.17,5.61,5.61.44,3.8.54,23.78-.35,26.63-.73,2.35-2.93,3.45-5.26,3.72-3.79.44-23.78.54-26.63-.35-2.35-.73-3.45-2.93-3.72-5.26-.62-5.34-.62-19.39,0-24.73.3-2.58,1.61-4.84,4.29-5.44ZM47.94,131.66h-11.98v11.98h11.98v-11.98Z"/>
      <path class="cls-1" d="M315.7,119.84c3.74-.83,21.77-.67,26.06-.18,3.46.4,5.22,2.17,5.61,5.61.44,3.8.54,23.78-.35,26.63-.73,2.35-2.93,3.45-5.26,3.72-3.79.44-23.78.54-26.63-.35-2.35-.73-3.45-2.93-3.72-5.26-.62-5.34-.62-19.39,0-24.73.3-2.58,1.61-4.84,4.29-5.44ZM335.38,131.66h-11.98v11.98h11.98v-11.98Z"/>
      <path class="cls-1" d="M28.26,161.76c3.74-.83,21.77-.67,26.06-.18,3.46.4,5.22,2.17,5.61,5.61.44,3.8.54,23.78-.35,26.63-.73,2.35-2.93,3.45-5.26,3.72-3.79.44-23.78.54-26.63-.35-2.35-.73-3.45-2.93-3.72-5.26-.62-5.34-.62-19.39,0-24.73.3-2.58,1.61-4.84,4.29-5.44ZM47.94,173.58h-11.98v11.98h11.98v-11.98Z"/>
      <path class="cls-1" d="M315.7,161.76c3.74-.83,21.77-.67,26.06-.18,3.46.4,5.22,2.17,5.61,5.61.44,3.8.54,23.78-.35,26.63-.73,2.35-2.93,3.45-5.26,3.72-3.79.44-23.78.54-26.63-.35-2.35-.73-3.45-2.93-3.72-5.26-.62-5.34-.62-19.39,0-24.73.3-2.58,1.61-4.84,4.29-5.44ZM335.38,173.58h-11.98v11.98h11.98v-11.98Z"/>
      <path class="cls-1" d="M28.26,203.68c3.74-.83,21.77-.67,26.06-.18,3.46.4,5.22,2.17,5.61,5.61.44,3.8.54,23.78-.35,26.63-.73,2.35-2.93,3.45-5.26,3.72-3.79.44-23.78.54-26.63-.35-2.35-.73-3.45-2.93-3.72-5.26-.62-5.34-.62-19.39,0-24.73.3-2.58,1.61-4.84,4.29-5.44ZM47.94,215.5h-11.98v11.98h11.98v-11.98Z"/>
      <path class="cls-1" d="M315.7,203.68c3.74-.83,21.77-.67,26.06-.18,3.46.4,5.22,2.17,5.61,5.61.44,3.8.54,23.78-.35,26.63-.73,2.35-2.93,3.45-5.26,3.72-3.79.44-23.78.54-26.63-.35-2.35-.73-3.45-2.93-3.72-5.26-.62-5.34-.62-19.39,0-24.73.3-2.58,1.61-4.84,4.29-5.44ZM335.38,215.5h-11.98v11.98h11.98v-11.98Z"/>
    </g>
  </g>
</svg>