<?xml version="1.0" encoding="UTF-8"?>
<svg id="Layer_2" data-name="Layer 2" xmlns="http://www.w3.org/2000/svg" viewBox="0 0 383.24 383.99">
  <defs>
    <style>
      .cls-1 {
        fill: #231f20;
      }
    </style>
  </defs>
  <g id="Layer_1-2" data-name="Layer 1">
    <path class="cls-1" d="M45.65,383.99c-23.87-3.87-42.35-21.95-45.57-46.13l-.08-291.08C4.34,12.66,34.79-4.26,67.55.92c5.82.92,15.53,9.13,15.53,15.16v73.73h165.05L331.95,5.96c5.96-5.49,14.1-6.83,21.53-3.53,4.89,2.18,20.77,17.94,24.51,22.65,2.35,2.96,3.7,5.97,5.26,9.34v8.23l-4.86,8.99-37.81,38.17h25.08c.63,0,5.41,1.47,6.36,1.87,5.66,2.41,8.89,7.72,11.23,13.1v264.23c-2.75,7.74-7.27,12.24-14.97,14.97H45.65ZM12.71,298.65c10.01-10.45,22.55-16.22,37.06-17.21,7.43-.51,20.44,3.44,20.62-7.08l-.36-255.72c-1.53-7.01-14.51-5.65-20.29-5.22-17.3,1.28-37.02,16.37-37.02,34.84v250.39ZM344.13,13.59c-2.4.4-12.74,9.91-12.49,11.37l27.91,27.37c3.77-4.35,12.9-9.54,10.26-16.09-2.18-5.43-16.48-15.32-20.23-20.94-1.49-1.24-3.5-2.04-5.45-1.71ZM321.59,34.47l-8.66,9.2,27.91,27.37,8.66-9.2-27.91-27.37ZM303.52,52.4l-69.19,69.33,27.37,27.91,69.87-69.19-28.06-28.06ZM234.28,103.29H83.08v175.53c0,1.93-3.13,7.3-4.51,8.96-9.89,11.89-27.42,4.23-41.35,9.56-38.87,14.86-29.01,71.2,14.76,73.96h310.71c4.93.03,7.89-2.94,7.86-7.87l-.38-255.67c-1.27-3.45-2.39-4.18-5.97-4.51-11.84-1.08-25.79.56-37.82.42l-61.39,61.38c-10.71,8.55-26.42,5.98-39.28,8.63l-91.73-.03v69.61h153.45v-34.06c0-.17,1.73-2.4,2.05-2.64,4.3-3.16,9.92-1.21,10.7,4.11l-.03,98.09c-.72,6.74-6.44,11.28-13.07,11.63l-129.71-.6c-6.92-2.79-3.98-12.91,2.43-12.91h44.54v-50.9h-69.24l-1.12,1.12v90.57c0,.34-2.06,3.11-2.57,3.42-3.07,1.85-10.16.02-10.16-3.42v-174.04h-19.09c-.41,0-3.97-1.73-4.52-2.22-4-3.59-.39-11.25,3.02-11.25h110.41c.31-9.46.43-20.9,2.44-30.13,2.59-11.88,13.72-17.82,20.77-26.76ZM251.5,157.92l-25.45-24.69c.04,6.68-2.12,14.03-2.29,20.56-.15,5.78,1.73,6.6,7.18,6.41,6.58-.22,13.85-2.27,20.55-2.29ZM287.43,255.99h-69.24l-1.12,1.12v49.78h70.36v-50.9Z"/>
  </g>
</svg>